<svg width="79" height="90" viewBox="0 0 79 90" fill="#FEC425" xmlns="http://www.w3.org/2000/svg">
    <path d="M19.9019 66.2473V88.7071H15.1619L5.65154 76.129V88.7071H0V66.2473H5.08942L14.2504 78.3964V66.2473H19.9019Z"/>
    <path d="M30.1869 66.2473V88.7071H24.4746V66.2473H30.1869Z"/>
    <path d="M54.6467 84.9076L54.3125 85.2753C53.1802 86.5666 51.7704 87.5801 50.1907 88.2385C48.611 88.897 46.9031 89.183 45.1971 89.0747C43.6946 89.0981 42.2024 88.8204 40.8071 88.2576C39.4118 87.6948 38.1413 86.8581 37.0693 85.7962C34.9524 83.5871 33.7842 80.6256 33.8181 77.5538C33.7896 74.504 34.952 71.5654 37.0541 69.3726C38.1425 68.2539 39.4435 67.368 40.8791 66.7678C42.3148 66.1677 43.8557 65.8656 45.4098 65.8796C47.0171 65.8304 48.6162 66.129 50.0995 66.7553C51.5827 67.3816 52.9157 68.3211 54.0087 69.5105L54.3429 69.8629L50.8791 73.8922L50.4992 73.5398C49.8494 72.8244 49.058 72.2543 48.1761 71.8664C47.2942 71.4785 46.3415 71.2813 45.3795 71.2877C44.6005 71.3067 43.8334 71.4842 43.1241 71.8094C42.4148 72.1346 41.7779 72.6009 41.2516 73.1802C40.7253 73.7596 40.3204 74.4402 40.0612 75.1812C39.802 75.9222 39.6938 76.7083 39.7431 77.4925C39.7043 78.2704 39.8204 79.0483 40.0844 79.7803C40.3483 80.5124 40.7549 81.1837 41.2802 81.7548C41.8055 82.3259 42.4388 82.7852 43.1428 83.1056C43.8468 83.4261 44.6073 83.6012 45.3795 83.6207C46.3679 83.6088 47.3434 83.3919 48.2452 82.9834C49.1469 82.5748 49.9556 81.9834 50.6208 81.246L51.0006 80.9089L54.6467 84.9076Z"/>
    <path d="M78.3318 88.7071H71.4192L65.0385 79.8825L63.1698 81.8588V88.7071H57.4575V66.2473H63.1698V74.7961L71.0394 66.2473H78.119L68.9429 75.8992L78.3318 88.7071Z"/>
    <path d="M16.3013 50.4603V55.7918H0V33.332H5.71231V50.4603H16.3013Z"/>
    <path d="M25.0067 33.332V55.7918H19.2944V33.332H25.0067Z"/>
    <path d="M45.9719 48.9436C46.0065 49.9535 45.8109 50.958 45.4 51.8797C44.9891 52.8013 44.3739 53.6156 43.6019 54.2598C41.8865 55.5471 39.7825 56.1966 37.6465 56.0982C34.1988 56.1193 30.8653 54.8533 28.288 52.5439L27.9082 52.2068L31.3265 48.0856L31.7215 48.4074C33.3765 49.9586 35.5394 50.842 37.7984 50.8893C38.558 50.8893 40.3355 50.7361 40.3355 49.3572C40.3355 48.6218 40.0621 48.0703 36.4463 47.1358C34.5455 46.7746 32.7368 46.0293 31.129 44.9449C30.3976 44.3625 29.8187 43.6084 29.4427 42.7486C29.0666 41.8887 28.9049 40.9491 28.9717 40.0117C28.9717 35.8905 32.238 32.9643 36.9324 32.9643C39.9113 32.9144 42.8136 33.9171 45.1363 35.7986L45.5161 36.105L42.5232 40.6246L42.0826 40.3335C40.5921 39.1369 38.7731 38.431 36.8717 38.3112C35.4892 38.3112 34.6536 38.8321 34.6536 39.7207C34.6536 40.6092 35.1853 41.0689 38.8467 42.0187C43.1309 43.0605 45.9719 44.6845 45.9719 48.9436Z"/>
    <path d="M65.9652 33.332V38.7248H59.5084V55.7918H53.7809V38.7248H47.3242V33.332H65.9652Z"/>
    <path d="M10.4371 0.2146V22.8276H4.78558V6.18958L1.21538 7.06285L0 2.22158L6.65423 0.2146H10.4371Z"/>
    <path d="M24.1101 0.000112974C22.7274 -0.0120563 21.3594 0.286932 20.1058 0.875301C18.8522 1.46367 17.7444 2.32661 16.8633 3.40126C15.0291 5.7267 14.0614 8.62708 14.1287 11.5977C14.0529 14.5714 15.0034 17.4794 16.8178 19.8248C17.6966 20.896 18.8025 21.7549 20.054 22.3382C21.3055 22.9214 22.6707 23.2143 24.0493 23.1953C29.8376 23.1953 34.0306 18.3234 34.0306 11.5977C34.0306 4.87202 29.8528 0.000112974 24.1101 0.000112974ZM24.1101 17.8944C21.6641 17.8944 19.9626 15.3053 19.9626 11.5977C19.9044 9.9839 20.3107 8.38762 21.1324 7.00156C21.4334 6.49104 21.8601 6.06761 22.3712 5.77235C22.8823 5.47708 23.4603 5.31999 24.0493 5.31631C24.6454 5.33119 25.2281 5.49768 25.7434 5.80033C26.2586 6.10298 26.6897 6.53198 26.9966 7.04752C27.8372 8.42677 28.2547 10.0258 28.1968 11.6437C28.1968 15.3206 26.556 17.8944 24.1101 17.8944Z"/>
    <path d="M46.5492 0.000117075C45.1671 -0.00881235 43.8001 0.291621 42.547 0.879761C41.2939 1.4679 40.1857 2.32909 39.3025 3.40126C37.4682 5.7267 36.5006 8.62709 36.5679 11.5977C36.49 14.5742 37.4466 17.4845 39.2721 19.8248C40.1494 20.894 41.2528 21.7516 42.5015 22.3348C43.7502 22.918 45.1125 23.2121 46.4885 23.1953C52.2767 23.1953 56.485 18.3234 56.485 11.5977C56.485 4.87202 52.3071 0.000117075 46.5492 0.000117075ZM46.5492 17.8944C44.1185 17.8944 42.4017 15.3053 42.4017 11.5977C42.3504 9.98466 42.7562 8.3903 43.5715 7.00157C43.8759 6.49404 44.3034 6.07301 44.8137 5.77817C45.324 5.48333 45.9004 5.32439 46.4885 5.31632C47.0869 5.33005 47.6721 5.49592 48.19 5.79856C48.7079 6.1012 49.1416 6.5308 49.451 7.04753C50.2915 8.42678 50.7091 10.0258 50.6512 11.6437C50.6512 15.3206 48.9952 17.8944 46.5492 17.8944Z"/>
    <path d="M69.0036 0.00011261C67.6213 -0.00989257 66.254 0.290061 65.0007 0.878277C63.7474 1.46649 62.6394 2.32826 61.7569 3.40125C59.9226 5.7267 58.955 8.62708 59.0223 11.5977C58.9464 14.5714 59.8969 17.4794 61.7113 19.8248C62.5923 20.8935 63.6986 21.7506 64.9496 22.3336C66.2006 22.9167 67.5648 23.2111 68.9429 23.1953C74.7311 23.1953 79.0002 18.3847 79.0002 11.5977C79.0002 4.81074 74.7615 0.00011261 69.0036 0.00011261ZM69.0036 17.8944C66.5577 17.8944 64.8561 15.3053 64.8561 11.5977C64.798 9.9839 65.2042 8.38762 66.0259 7.00156C66.3281 6.49205 66.7551 6.06943 67.2659 5.77431C67.7767 5.47919 68.3542 5.32147 68.9429 5.31631C69.5399 5.32689 70.1242 5.49156 70.6402 5.79463C71.1562 6.0977 71.5865 6.52905 71.8902 7.04752C72.7308 8.42677 73.1483 10.0258 73.0904 11.6437C73.0904 15.3206 71.404 17.8944 69.0036 17.8944Z"/>
</svg>