<svg width="19" height="24" viewBox="0 0 19 24" fill="none" xmlns="http://www.w3.org/2000/svg">
<path d="M11.1345 0.196716C11.1345 0.196716 11.8388 3.06091 11.8388 5.37817C11.8388 7.60907 10.387 9.40818 8.15883 9.40818C5.9307 9.40818 4.24883 7.60907 4.24883 5.37817L4.27758 4.98956C2.10695 7.59468 0.798828 10.9338 0.798828 14.5896C0.798828 19.3537 4.6657 23.2254 9.42383 23.2254C14.182 23.2254 18.0488 19.3537 18.0488 14.5896C18.0488 8.7605 15.3463 3.57905 11.1345 0.196716ZM9.29445 19.6272C7.3682 19.6272 5.8157 18.1159 5.8157 16.2448C5.8157 14.4889 6.93695 13.2655 8.84883 12.8769C10.7607 12.4883 12.7301 11.5671 13.8226 10.099C14.2395 11.4952 14.4695 12.9632 14.4695 14.4601C14.4695 17.3099 12.1407 19.6272 9.29445 19.6272Z" fill="#FEC223"/>
</svg>
